<svg version="1.0" xmlns="http://www.w3.org/2000/svg"
 width="500.000000pt" height="500.000000pt" viewBox="0 0 500.000000 500.000000"
 preserveAspectRatio="xMidYMid meet">

<g transform="translate(0.000000,500.000000) scale(0.100000,-0.100000)"
fill="#000000" stroke="none">
<path d="M2404 3486 c-49 -22 -106 -77 -127 -124 -12 -28 -21 -78 -24 -138
l-6 -94 -104 0 c-173 0 -199 -22 -228 -197 -9 -59 -19 -113 -22 -120 -4 -10
-36 -13 -122 -13 -64 0 -122 -4 -129 -9 -22 -14 -10 -54 18 -62 32 -9 1326
-11 1544 -2 l167 6 -3 31 -3 31 -126 3 -126 3 -23 126 c-20 113 -26 130 -55
162 l-33 36 -124 5 -123 5 -6 102 c-4 90 -9 107 -35 150 -20 32 -48 59 -84 81
-48 28 -62 32 -125 32 -38 -1 -84 -7 -101 -14z m175 -70 c75 -39 106 -109 99
-226 l-3 -55 -115 -3 c-92 -2 -117 -6 -127 -19 -8 -11 -9 -22 -3 -34 9 -17 31
-18 276 -21 241 -3 267 -5 279 -21 12 -17 45 -173 45 -216 l0 -21 -530 0 -531
0 6 33 c3 17 12 67 19 110 8 44 21 86 30 95 12 12 39 18 96 21 106 4 130 -2
130 -35 0 -35 17 -64 38 -64 38 0 42 19 42 183 0 183 8 211 73 258 32 23 50
29 94 29 30 0 67 -7 82 -14z"/>
<path d="M1760 2460 l0 -150 83 1 c102 1 125 8 150 41 25 33 16 83 -19 101
l-25 13 21 19 c30 27 27 78 -6 104 -23 18 -41 21 -115 21 l-89 0 0 -150z m178
114 c26 -18 29 -56 6 -78 -11 -12 -35 -16 -85 -16 l-69 0 0 55 0 55 63 0 c40
0 70 -5 85 -16z m22 -144 c24 -24 25 -38 4 -68 -13 -20 -24 -22 -95 -22 l-79
0 0 55 0 55 75 0 c62 0 79 -4 95 -20z"/>
<path d="M2100 2510 c0 -64 5 -113 14 -135 39 -93 199 -84 225 12 6 21 11 80
11 131 0 75 -3 92 -15 92 -12 0 -15 -18 -15 -100 0 -140 -17 -170 -95 -170
-78 0 -95 30 -95 170 0 82 -3 100 -15 100 -12 0 -15 -18 -15 -100z"/>
<path d="M2470 2460 c0 -127 2 -150 15 -150 13 0 15 23 15 150 0 127 -2 150
-15 150 -13 0 -15 -23 -15 -150z"/>
<path d="M2620 2460 c0 -125 2 -150 15 -150 12 0 15 22 17 118 l3 117 58 -97
c32 -54 61 -98 65 -98 4 0 34 46 67 103 l60 102 3 -122 c4 -179 22 -156 22 27
0 113 -3 150 -12 150 -7 0 -33 -37 -58 -82 -25 -44 -53 -94 -63 -111 l-19 -30
-65 111 c-35 62 -71 112 -79 112 -11 0 -14 -27 -14 -150z"/>
<path d="M3060 2460 l0 -150 105 0 c87 0 105 3 105 15 0 12 -17 15 -90 15
l-90 0 0 55 0 55 75 0 c60 0 75 3 75 15 0 12 -15 15 -75 15 l-75 0 0 55 0 55
85 0 c50 0 85 4 85 10 0 6 -40 10 -100 10 l-100 0 0 -150z"/>
<path d="M1642 2168 c-36 -36 3 -68 84 -68 24 0 44 -1 44 -3 0 -2 -9 -53 -20
-113 -25 -136 -25 -161 -1 -200 40 -66 31 -65 773 -62 655 3 667 3 695 24 15
11 36 37 46 57 18 37 18 40 -4 163 -25 139 -22 150 34 139 50 -9 77 4 77 35 0
16 -7 30 -16 34 -9 3 -395 6 -858 6 -642 0 -845 -3 -854 -12z m1518 -71 c0 -1
9 -49 20 -107 23 -121 25 -161 8 -178 -9 -9 -175 -12 -685 -12 l-673 0 -14 23
c-14 20 -13 36 6 150 l21 127 659 0 c362 0 658 -1 658 -3z"/>
</g>
</svg>
